<svg width="32" height="32" viewBox="0 0 32 32" fill="none" xmlns="http://www.w3.org/2000/svg">
<g clip-path="url(#clip0_2959_7268)">
<path d="M23.3378 16.9904L21.4585 8.22048C20.9098 5.65998 18.6428 3.81277 16.0062 3.81277C13.3876 3.81277 11.1063 5.64242 10.5539 8.22048L8.67465 16.9904C7.34246 17.1748 6.12025 17.8299 5.22918 18.8373C4.16227 20.0437 3.66422 21.6603 3.8629 23.2725C4.15814 25.6694 6.06085 27.6931 8.4586 28.103C10.0822 28.3805 11.7026 27.9565 12.9497 26.9613C13.7673 27.6234 14.7239 28.1872 16.0062 28.1872C17.2885 28.1872 18.2451 27.6233 19.0627 26.9613C20.305 27.9527 21.9238 28.3815 23.5538 28.103C25.9534 27.6928 27.8545 25.6678 28.1495 23.2725C28.3482 21.6603 27.8502 20.0437 26.7833 18.8373C25.8922 17.8299 24.67 17.1748 23.3378 16.9904ZM26.2887 23.0433C26.0926 24.6356 24.8096 25.9862 23.238 26.2548C22.2655 26.421 21.2955 26.2137 20.5053 25.6935C21.1591 25.1381 21.8433 24.673 22.7405 24.5056L22.3966 22.6625C20.6927 22.9804 19.5952 23.9756 18.627 24.8536C17.6297 25.758 16.9696 26.3122 16.0062 26.3122C15.0429 26.3122 14.3827 25.7579 13.3855 24.8536C12.4172 23.9756 11.3198 22.9804 9.61582 22.6625L9.27195 24.5056C10.1692 24.673 10.8533 25.1381 11.5071 25.6935C10.717 26.2137 9.74694 26.4211 8.77446 26.2548C7.20288 25.9862 5.91985 24.6355 5.72373 23.0433C5.5888 21.9481 5.91191 20.8955 6.63364 20.0794C6.98569 19.6813 7.41824 19.3625 7.90268 19.1441C8.38713 18.9257 8.91242 18.8126 9.44382 18.8124H10.2017L12.3872 8.61334C12.7504 6.91813 14.2725 5.68773 16.0062 5.68773C17.7399 5.68773 19.2618 6.91813 19.6251 8.61334L21.8106 18.8124H22.5685C23.0999 18.8126 23.6252 18.9257 24.1096 19.1441C24.5941 19.3625 25.0266 19.6813 25.3787 20.0794C26.1005 20.8954 26.4236 21.948 26.2887 23.0433ZM6.28772 7.95098L7.49981 9.16308L8.82559 7.8373L6.28772 5.29942L4.41276 7.17438L3.20073 5.96235L1.87495 7.28812L4.41276 9.82593L6.28772 7.95098ZM5.62486 14.7879L6.95064 13.4622L4.41276 10.9243L2.53781 12.7992L1.32578 11.5872L0 12.913L2.53781 15.4508L4.41276 13.5758L5.62486 14.7879ZM25.7122 7.95098L27.5872 9.82593L30.125 7.28812L28.7993 5.96235L27.5872 7.17438L25.7122 5.29942L23.1744 7.8373L24.5002 9.16308L25.7122 7.95098ZM30.6742 11.5872L29.4621 12.7992L27.5872 10.9243L25.0494 13.4622L26.3751 14.7879L27.5872 13.5758L29.4621 15.4508L32 12.913L30.6742 11.5872Z" fill="#B6AF6B"/>
</g>
<defs>
<clipPath id="clip0_2959_7268">
<rect width="32" height="32" fill="white"/>
</clipPath>
</defs>
</svg>
