<svg width="29" height="28" viewBox="0 0 29 28" fill="none" xmlns="http://www.w3.org/2000/svg">
<g clip-path="url(#clip0_2959_7262)">
<path d="M6.82521 5.75925H8.52443V4.11179H10.2307V2.47116H8.52443V0.8237H6.82521V2.47116H5.11891V4.11179H6.82521V5.75925ZM3.41261 9.06106H5.11183V10.7017H3.41261V9.06106ZM1.70631 5.76608H3.40553V7.40671H1.70631V5.76608ZM24.7856 13.1531C26.1778 10.3898 25.6877 6.95811 23.314 4.66621C20.3215 1.77701 15.4526 1.77701 12.4602 4.66626L2.24429 14.5298C-0.748095 17.419 -0.748095 22.1201 2.24429 25.0093C5.23667 27.8985 10.1057 27.8985 13.098 25.0093L14.6845 23.4775C16.0145 25.6872 18.493 27.1762 21.3252 27.1762C25.5571 27.1762 29 23.852 29 19.766C29 16.8814 27.2837 14.3767 24.7856 13.1531ZM27.2401 18.9458H15.4103C15.824 16.1517 18.3187 13.9966 21.3252 13.9966C24.3318 13.9966 26.8264 16.1516 27.2401 18.9458ZM13.6617 5.82635C15.9915 3.57678 19.7825 3.57678 22.1124 5.82635C24.0015 7.65029 24.3574 10.4011 23.183 12.576C22.5754 12.4296 21.9515 12.3558 21.3252 12.356C18.6431 12.356 16.2783 13.6916 14.9057 15.7098L9.16549 10.1675L13.6617 5.82635ZM11.8966 23.8493C9.56667 26.0988 5.77572 26.0988 3.44586 23.8493L3.4458 23.8492C1.11595 21.5997 1.11595 17.9395 3.4458 15.6899L7.96391 11.3276L14.104 17.256C13.8106 18.0403 13.6503 18.8854 13.6503 19.7661C13.6503 20.4915 13.7593 21.1926 13.9615 21.8555L11.8966 23.8493ZM21.3252 25.5357C18.3187 25.5357 15.824 23.3806 15.4103 20.5864H27.2401C26.8264 23.3806 24.3318 25.5357 21.3252 25.5357Z" fill="#145BC5"/>
</g>
<defs>
<clipPath id="clip0_2959_7262">
<rect width="29" height="28" fill="white"/>
</clipPath>
</defs>
</svg>
